# xmcd
#
# Track frame offsets: 
#        150
#        10475
#        21792
#        38612
#        48930
#        59240
#        69035
#        79840
#        92445
#        105577
#        115295
#        124370
#        135065
#        146707
#        155757
#        168490
#        182417
#        194225
#        207652
#        219145
#        229977
#        238042
#        249382
#        260687
#        270820
#        283202
#
# Disc length: 3943 seconds
#
# Revision: 3
# Processed by: cddbd v1.5.2PL0 Copyright (c) Steve Scherf et al.
# Submitted via: ExactAudioCopyFreeDBPlugin 1.0
#
DISCID=790f651a
DTITLE=Smith Carl - Satisfaction Guaranteed - Disc 4
DYEAR=1996
DGENRE=Country
TTITLE0=San Antonio Rose
TTITLE1=Live And Let Live
TTITLE2=You Are My Sunshine
TTITLE3=Steel Guitar Rag
TTITLE4=This World Is Not My Home
TTITLE5=Standing On The Promises
TTITLE6=Old Camp Meeting Days
TTITLE7=When The Roll Is Called Up Yonder
TTITLE8=You Can't Hurt Me Anymore
TTITLE9=That's The Way I Like You Best
TTITLE10=I Won't Be Mad, I'll Be Glad
TTITLE11=That's What You Think
TTITLE12=Pass Me Not
TTITLE13=Glory Land Way
TTITLE14=Anywhere Is Home
TTITLE15=When They Ring Them Golden Bells
TTITLE16=No Trespassing
TTITLE17=Try To Take It Like A Man
TTITLE18=Mr. Lost
TTITLE19=Happy Street
TTITLE20=Amazing Grace
TTITLE21=Why, Why
TTITLE22=Emotions
TTITLE23=You're So Easy To Love
TTITLE24=Your Name Is Beautiful
TTITLE25=Dry Your Darling's Eyes
EXTD=Corrected Title And Track
EXTT0=
EXTT1=
EXTT2=
EXTT3=
EXTT4=
EXTT5=
EXTT6=
EXTT7=
EXTT8=
EXTT9=
EXTT10=
EXTT11=
EXTT12=
EXTT13=
EXTT14=
EXTT15=
EXTT16=
EXTT17=
EXTT18=
EXTT19=
EXTT20=
EXTT21=
EXTT22=
EXTT23=
EXTT24=
EXTT25=
PLAYORDER=
